# xmcd CD database file
#
# Track frame offsets:
#	150
#	22475
#	46055
#	68380
#
# Disc length: 1223 seconds
#
# Revision: 0
# Processed by: cddbd v1.5.1PL2 Copyright (c) Steve Scherf et al.
# Submitted via: CDex 1.51
#
DISCID=2c04c504
DTITLE=徳永 英明 - SAYONARAの理由／ボクニデキルコト
DYEAR=2006
DGENRE=JPop
TTITLE0=SAYONARAの理由
TTITLE1=ボクニデキルコト
TTITLE2=SAYONARAの理由 (instrumental)
TTITLE3=ボクニデキルコト (instrumental)
EXTD=YEAR: 2006
EXTT0=
EXTT1=
EXTT2=
EXTT3=
PLAYORDER=
